<svg width="200" height="200" viewBox="0 0 200 200" fill="none" xmlns="http://www.w3.org/2000/svg">
<g clip-path="url(#clip0_43_60)">
<path fill-rule="evenodd" clip-rule="evenodd" d="M42.4809 178.812C42.2057 179.325 41.5516 179.496 41.0661 179.174C30.8117 172.386 23.0309 163.07 18.1123 152.513C17.8581 151.968 18.1517 151.328 18.7281 151.154L62.4576 137.959C63.3106 137.701 64.0489 138.604 63.6277 139.389L42.4809 178.812ZM15.2689 141.752C14.7298 141.915 14.162 141.601 14.0228 141.055C11.017 129.265 11.2948 116.61 15.3016 104.565C15.4952 103.983 16.1672 103.723 16.7075 104.013L59.0888 126.747C59.8739 127.168 59.7579 128.328 58.905 128.585L15.2689 141.752ZM20.2143 93.407C19.9459 93.8897 20.1276 94.4998 20.6143 94.7609L72.6066 122.65L74.7555 123.803L78.8378 125.992L81.4188 127.377L133.411 155.266C133.898 155.527 134.507 155.341 134.76 154.85C151.038 123.37 139.077 84.5444 107.738 67.7338C76.3987 50.9232 37.4374 62.434 20.2143 93.407ZM127.864 163.638C128.404 163.928 128.559 164.632 128.182 165.115C120.288 175.212 109.773 182.486 98.1565 186.479C97.6259 186.661 97.0535 186.362 96.8914 185.824L83.6205 141.843C83.3631 140.99 84.2655 140.252 85.0505 140.673L127.864 163.638ZM87.1268 188.081C87.3014 188.659 86.9271 189.259 86.3293 189.347C74.9206 191.008 62.9858 189.657 51.7737 184.918C51.2374 184.691 51.018 184.052 51.2932 183.539L72.2082 144.548C72.6293 143.763 73.7895 143.879 74.0468 144.732L87.1268 188.081ZM59.9625 85.2142C66.931 81.208 75.3568 79.7244 83.8045 81.6689C86.4955 82.2884 89.1792 80.609 89.7986 77.9179C90.4181 75.2269 88.7387 72.5432 86.0476 71.9238C75.0459 69.3914 64.0477 71.3309 54.9785 76.5447C52.5845 77.921 51.7595 80.9774 53.1358 83.3714C54.512 85.7654 57.5685 86.5904 59.9625 85.2142Z" fill="#6E62F9"/>
<path d="M176.29 58.3111C168.174 78.8575 150.451 89.1473 132.096 76.8535C113.742 64.5598 116.14 44.6115 132.422 28.928C148.703 13.2446 176.616 10.3856 176.616 10.3856C176.616 10.3856 184.596 37.2853 176.29 58.3111Z" fill="#01B763"/>
<path d="M161.762 114.784C150.717 114.679 142.737 108.251 145.185 97.4799C147.633 86.7089 157.374 84.2523 167.613 89.0406C177.852 93.8289 184.19 106.345 184.19 106.345C184.19 106.345 173.065 114.892 161.762 114.784Z" fill="#01924F"/>
</g>
<defs>
<clipPath id="clip0_43_60">
<rect width="200" height="200" fill="white"/>
</clipPath>
</defs>
</svg>
